<?xml version="1.0" encoding="UTF-8" standalone="no"?>
<!-- Created with Inkscape (http://www.inkscape.org/) -->

<svg
   width="129.35141mm"
   height="80.003174mm"
   viewBox="0 0 129.35141 80.003174"
   version="1.1"
   id="svg5"
   xmlns="http://www.w3.org/2000/svg"
   xmlns:svg="http://www.w3.org/2000/svg">
  <defs
     id="defs2" />
  <g
     id="layer1"
     transform="translate(-35.903361,-80.075842)">
    <g
       id="g489"
       transform="matrix(0.12945497,0,0,0.12945497,35.903361,80.075842)">
	<rect
   id="rect19"
   x="364"
   y="66.099998"
   fill="#ff5a00"
   width="270.39999"
   height="485.79999" />

	<path
   id="XMLID_330_"
   fill="#eb001b"
   d="M 382,309 C 382,210.3 428.4,122.7 499.6,66.1 447.2,24.9 381.1,0 309,0 138.2,0 0,138.2 0,309 0,479.8 138.2,618 309,618 381.1,618 447.2,593.1 499.6,551.9 428.3,496.1 382,407.7 382,309 Z" />

	<path
   id="path22"
   fill="#f79e1b"
   d="M 999.2,309 C 999.2,479.8 861,618 690.2,618 618.1,618 552,593.1 499.6,551.9 571.7,495.2 617.2,407.7 617.2,309 617.2,210.3 570.8,122.7 499.6,66.1 551.9,24.9 618,0 690.1,0 861,0 999.2,139.1 999.2,309 Z" />

</g>
  </g>
</svg>
