<?xml version="1.0" encoding="UTF-8" standalone="no"?>
<!-- Created with Inkscape (http://www.inkscape.org/) -->

<svg
   width="34.364502mm"
   height="47.516693mm"
   viewBox="0 0 34.364502 47.516693"
   version="1.1"
   id="svg5"
   xmlns="http://www.w3.org/2000/svg"
   xmlns:svg="http://www.w3.org/2000/svg">
  <defs
     id="defs2">
    <style
       id="style9">.cls-1{fill:#fff;}</style>
    <style
       id="style777">.cls-1{fill:#fff;}</style>
    <style
       id="style1255">.cls-1{fill:#fb4401;}</style>
    <style
       id="style9-1">.cls-1{fill:#fff;}</style>
    <style
       id="style777-1">.cls-1{fill:#fff;}</style>
  </defs>
  <g
     id="layer1"
     transform="translate(-140.94034,-171.81378)">
    <path
       d="m 157.83469,210.66994 c 0,-0.31469 0,-0.62265 0,-0.93062 q 0,-1.74176 0,-3.48184 c 0,-0.10434 -0.0303,-0.138 -0.13463,-0.138 q -0.97437,0 -1.94539,-0.0169 c -0.11275,0 -0.13294,0.037 -0.13126,0.13631 q 0,1.99924 0,3.99848 c 0,0.11107 0,0.22382 0,0.33657 0,0.0808 -0.0219,0.11108 -0.10938,0.10939 -0.65296,0 -1.30591,0 -1.95718,0 -0.20025,0 -0.40052,0 -0.60078,0 -0.1077,0 -0.13463,-0.032 -0.13463,-0.13463 0,-0.76907 0,-1.53814 0,-2.30552 0,-0.67314 0,-1.36144 0,-2.04131 0,-0.11444 -0.0286,-0.15146 -0.14641,-0.15146 q -2.6606,0 -5.31952,0 h -0.14136 c 0,-0.0555 0,-0.0976 0.0151,-0.13968 0.16828,-1.01981 0.33657,-2.03963 0.50486,-3.05944 0.0185,-0.11107 0.0589,-0.14136 0.16828,-0.13968 0.59742,0 1.19315,0.0118 1.78888,0 a 1.6020851,1.6020851 0 0 0 0.50486,-0.0774 0.95250021,0.95250021 0 0 0 0.62939,-0.91885 q 0,-3.53401 0,-7.06802 0,-2.60507 0,-5.21687 a 1.3260957,1.3260957 0 0 0 -1.178,-1.34629 10.681128,10.681128 0 0 0 -1.21671,-0.0505 c -0.37192,0 -0.74551,0 -1.11742,0.0151 -0.10097,0 -0.11948,-0.0336 -0.11948,-0.12284 q 0,-1.37154 0,-2.73802 c 0,-0.0387 0,-0.0791 0.008,-0.12958 h 5.59384 c 0,-0.064 0,-0.10602 0,-0.14978 q 0,-2.12545 0,-4.25091 c 0,-0.1868 0,-0.18511 0.17838,-0.18511 h 2.46371 c 0.16829,0 0.16829,0 0.16829,0.17838 0,1.38836 0,2.77841 0,4.16677 0,0.1178 0.042,0.13968 0.14473,0.13631 0.63275,-0.0118 1.26551,-0.0202 1.89658,-0.0286 0.16829,0 0.16829,0 0.16829,-0.16829 q 0,-2.0514 0,-4.10618 c -0.007,-0.19016 -0.0521,-0.19016 0.18175,-0.19016 0.8246,0 1.64752,0 2.47212,0 0.11107,0 0.14136,0.0303 0.14136,0.14136 0,1.41697 0,2.83226 0,4.24923 0,0.18511 0,0.18511 0.18512,0.20362 a 12.900824,12.900824 0 0 1 3.39265,0.72363 5.4541574,5.4541574 0 0 1 1.99419,1.26552 4.2492279,4.2492279 0 0 1 1.1393,2.35601 6.0263307,6.0263307 0 0 1 0,2.01943 c -0.24233,1.31936 -0.98447,2.27186 -2.1406,2.92145 l -0.11611,0.0639 a 0.25916083,0.25916083 0 0 0 -0.0286,0.0354 l 0.15819,0.042 a 6.206397,6.206397 0 0 1 2.07161,0.93063 3.8116836,3.8116836 0 0 1 1.51457,2.12545 7.2077001,7.2077001 0 0 1 -0.45101,5.09402 c -0.50486,1.06189 -1.35638,1.79057 -2.39976,2.30384 a 9.9373033,9.9373033 0 0 1 -2.58319,0.81114 20.221276,20.221276 0 0 1 -2.59161,0.29282 c -0.0976,0 -0.12454,0.0471 -0.12454,0.14304 0,1.44558 0,2.88948 0,4.33506 0,0.11948 -0.0286,0.15483 -0.15145,0.15314 -0.84143,0 -1.68286,0 -2.52429,0 -0.032,0.008 -0.0707,0.003 -0.12117,-0.002 z m 2.87433,-8.2881 a 5.0485876,5.0485876 0 0 0 1.73671,-0.73709 c 1.36312,-0.94408 1.21335,-2.7397 0.47962,-3.59291 a 3.402748,3.402748 0 0 0 -1.45062,-0.95082 9.0352888,9.0352888 0 0 0 -2.50243,-0.48466 c -1.04505,-0.0774 -2.08843,-0.0387 -3.13348,-0.0202 -0.11612,0 -0.15819,0.0286 -0.15819,0.15145 q 0.0101,2.91809 0,5.83617 c 0,0.0959 0.0235,0.13295 0.1279,0.13295 0.70343,0 1.40855,0.008 2.11199,0 a 12.717392,12.717392 0 0 0 2.7885,-0.3349 z m -5.02166,-8.60784 a 0.61592769,0.61592769 0 0 0 0.0808,0.0101 c 1.11742,0.0169 2.23316,0.037 3.34216,-0.13968 a 5.6779782,5.6779782 0 0 0 1.7283,-0.52505 2.3728362,2.3728362 0 0 0 1.04506,-3.30514 2.5108309,2.5108309 0 0 0 -1.26383,-1.07872 6.5631639,6.5631639 0 0 0 -2.04131,-0.46952 24.302218,24.302218 0 0 0 -2.73465,-0.0303 c -0.16829,0 -0.16829,0 -0.16829,0.16829 v 5.23539 c 0.003,0.0471 0.008,0.0892 0.0118,0.13463 z"
       id="path1811"
       style="stroke-width:0.168286" />
  </g>
</svg>
