<?xml version="1.0" encoding="UTF-8" standalone="no"?>
<!-- Created with Inkscape (http://www.inkscape.org/) -->

<svg
   width="54.865875mm"
   height="55.793232mm"
   viewBox="0 0 54.865875 55.793232"
   version="1.1"
   id="svg5"
   xmlns="http://www.w3.org/2000/svg"
   xmlns:svg="http://www.w3.org/2000/svg">
  <defs
     id="defs2">
    <style
       id="style9">.cls-1{fill:#fff;}</style>
    <style
       id="style777">.cls-1{fill:#fff;}</style>
    <style
       id="style1255">.cls-1{fill:#fb4401;}</style>
  </defs>
  <g
     id="layer1"
     transform="translate(-121.61812,-175.9652)">
    <g
       id="Réteg_1"
       data-name="Réteg 1"
       transform="matrix(0.26458333,0,0,0.26458333,97.585809,155.40995)">
      <path
         class="cls-1"
         d="m 37.3,18.11 h 1 c 5.71,0 11.42,0 17.13,0 a 1.53,1.53 0 0 1 1.4,0.71 Q 71.72,38.57 86.66,58.3 l 43,56.79 37.34,49.43 2.82,3.71 0.56,0.8 a 4.09,4.09 0 0 1 -0.66,0.1 c -5.41,0 -10.83,0 -16.24,0 a 1.36,1.36 0 0 1 -1.18,-0.63 q -8,-10.56 -16.12,-21.09 L 93.51,91.65 46.44,30.11 37.94,19 C 37.76,18.77 37.6,18.52 37.3,18.11 Z"
         id="path785"
         style="fill:none" />
      <g
         id="Réteg_1-6"
         data-name="Réteg 1"
         transform="translate(90.830797,77.689139)">
        <path
           d="m 174.4,120.25 c -0.37,0.47 -0.7,1 -1.1,1.4 -12.78,14.06 -25.61,28.09 -38.34,42.21 -3.46,3.84 -7.42,5.89 -12.73,5.6 -5.31,-0.29 -10.92,-0.17 -16.38,-0.08 a 25.44,25.44 0 0 1 -10.49,-2 c -5.28,-2.22 -10.54,-4.5 -15.89,-6.55 a 15.9,15.9 0 0 0 -5.79,-1 4.3,4.3 0 0 0 -4,3.68 c -0.32,1.86 0.59,4.19 2.41,4.87 9.43,3.52 18.9,6.91 28.39,10.27 a 9.87,9.87 0 0 0 3.27,0.32 c 6.37,0 12.73,-0.1 19.09,0 a 22,22 0 0 0 17.5,-7.48 Q 152.69,158 165,144.53 q 9.52,-10.4 19.11,-20.74 c 2.88,-3.1 6.34,-5.1 10.74,-5 4.88,0.1 8.74,2.12 11,6.49 a 11.55,11.55 0 0 1 -1,12.92 c -2.95,3.91 -6.37,7.46 -9.64,11.12 q -21.8,24.45 -43.61,48.9 c -7.51,8.45 -16.78,12.76 -28.14,12.65 -9.48,-0.1 -19,0 -28.42,0 a 56.26,56.26 0 0 1 -19,-3.6 c -14.86,-5.2 -29.69,-10.44 -44.56,-15.6 -1.77,-0.62 -2.39,-1.49 -2.39,-3.43 0.07,-22.05 0,-44.11 0,-66.16 V 120 c 0.84,-0.06 1.57,-0.15 2.29,-0.15 10.51,0 21,0.05 31.53,0 a 37.23,37.23 0 0 1 16.56,4 c 10.93,5.3 21.8,10.74 32.84,15.78 7.72,3.53 15.7,6.47 23.53,9.74 a 2.15,2.15 0 0 0 2.85,-0.69 q 9.13,-10.32 18.36,-20.58 c 2.61,-2.89 5.43,-5.63 9.2,-6.88 a 69.63,69.63 0 0 1 7.89,-1.71 z m -52.56,30.23 a 5.83,5.83 0 0 0 -6.15,5.66 6.6,6.6 0 0 0 6.18,6.56 6.41,6.41 0 0 0 6.3,-6.17 6.2,6.2 0 0 0 -6.33,-6.05 z"
           id="path1382" />
        <path
           d="m 106.24,97.12 q -39.83,0 -79.66,0 A 27.28,27.28 0 0 1 21.63,96.79 11.41,11.41 0 0 1 11.79,85 q -0.07,-36.2 0,-72.4 A 12.32,12.32 0 0 1 24.48,0.1 C 78.56,0.09 132.63,0.16 186.7,0 c 7.16,0 14,4.81 14,14 -0.1,19.85 0,39.69 0,59.54 0,3.66 0,7.33 -0.08,11 -0.16,7.46 -5.36,12.57 -12.83,12.57 z m -0.4,-10.62 v 0 q 33.3,0 66.59,0 c 9.95,0 17.29,-6.75 17.5,-16.7 q 0.45,-20.83 0,-41.69 C 189.68,17.32 182.53,10.85 171.76,10.84 H 40 c -10.58,0 -17.83,7.07 -17.89,17.59 -0.07,13.69 0,27.39 0,41.08 a 16.06,16.06 0 0 0 3.1,9.91 17.06,17.06 0 0 0 14.46,7.15 q 33.08,-0.09 66.17,-0.07 z"
           id="path1384" />
        <path
           d="m 0,156.6 c 0,-8.85 0,-17.71 0,-26.56 0,-6 4.29,-10.52 9.92,-10.51 5.63,0.01 9.78,4.31 9.8,10.39 q 0.11,27.18 0.06,54.35 a 9.84,9.84 0 0 1 -9.64,9.93 10.18,10.18 0 0 1 -10.1,-10 c 0,-9.2 0,-18.4 0,-27.59 z"
           id="path1386" />
        <path
           d="m 126.71,135.73 c 4.28,-4.3 8.1,-8.56 12.38,-12.29 3.44,-3 7.82,-3.84 12.7,-3.38 -0.5,0.62 -0.84,1.1 -1.23,1.52 -4.89,5.33 -9.83,10.63 -14.68,16 -1.13,1.26 -2,1.75 -3.65,0.77 -1.65,-0.98 -3.31,-1.58 -5.52,-2.62 z"
           id="path1388" />
        <path
           d="m 130.31,77.27 c 16.5,-19.21 16.25,-38.11 0.19,-57.22 0.82,-0.06 1.46,-0.13 2.11,-0.13 12.09,0 24.19,0 36.29,0 a 2.9,2.9 0 0 1 2.9,1.69 15.73,15.73 0 0 0 7.79,6.86 2.38,2.38 0 0 1 1.22,1.72 c 0.07,12.64 0.05,25.29 0.05,38.16 -3.44,1 -6.67,2.74 -8.32,6 -1.41,2.74 -3.31,3 -5.94,3 -11.34,-0.11 -22.68,-0.06 -34,-0.06 z m 30.37,-21.91 a 7.12,7.12 0 0 0 7.06,-7.11 7,7 0 0 0 -7.21,-6.9 7,7 0 0 0 -7,6.93 7.29,7.29 0 0 0 7.15,7.08 z"
           id="path1390" />
        <path
           d="M 80.84,20 C 64.18,37.84 65.32,61 81,77.07 a 9.57,9.57 0 0 1 -1.4,0.2 c -12.24,0 -24.48,0 -36.71,0 A 2.42,2.42 0 0 1 40.28,75.8 13.9,13.9 0 0 0 33,69 2.45,2.45 0 0 1 31.24,66.38 q 0.06,-17.83 0,-35.68 a 2.38,2.38 0 0 1 1.69,-2.63 16.66,16.66 0 0 0 7.59,-6.82 2.73,2.73 0 0 1 1.82,-1.25 c 12.71,0 25.43,0 38.5,0 z M 50.71,55.36 a 6.88,6.88 0 0 0 7.07,-6.63 7.1229506,7.1229506 0 1 0 -14.24,-0.41 7.07,7.07 0 0 0 7.17,7.04 z"
           id="path1392" />
        <path
           d="m 105.32,77.34 c -15.78,-0.1 -27.81,-12.7 -27.7,-29 0.11,-15.83 12.82,-28.8 28.05,-28.65 15.76,0.17 28.18,13.18 28,29.36 a 28.25,28.25 0 0 1 -28.35,28.29 z m -3.74,-15.08 c 0.13,1.05 0.21,1.87 0.35,2.68 a 3.8,3.8 0 0 0 7.59,0 c 0.09,-2.24 0.93,-2.76 3.08,-2.83 4.06,-0.12 5.83,-2.16 5.88,-6.16 0,-2.14 0.06,-4.29 -0.06,-6.42 a 5.29,5.29 0 0 0 -5.16,-5.2 c -1.51,-0.11 -3,0 -4.56,-0.06 H 101 c -0.5,-2.95 -0.5,-2.95 2.12,-3 3.6,0 7.19,0 10.78,0 2.2,0 3.55,-1.31 3.62,-3.18 a 3.79,3.79 0 0 0 -3.6,-3.82 c -1.35,-0.18 -2.71,-0.19 -4,-0.27 -0.53,-3.41 -1.69,-4.84 -3.91,-5 -2.22,-0.16 -3.29,0.95 -4.4,4.95 -1.43,0.15 -2.89,0.18 -4.3,0.46 a 5.18,5.18 0 0 0 -4.3,4.9 c -0.07,2.34 -0.08,4.7 0,7 a 5.35,5.35 0 0 0 3.7,5 10.93,10.93 0 0 0 2.87,0.26 c 3.7,0 7.41,0 11.08,0 v 3.2 h -2 c -3.8,0 -7.6,0 -11.4,0 a 3.45,3.45 0 0 0 -1.66,6.57 10.94,10.94 0 0 0 3.35,0.86 18.24,18.24 0 0 0 2.63,0.06 z"
           id="path1394" />
      </g>
    </g>
  </g>
</svg>
