<?xml version="1.0" encoding="UTF-8" standalone="no"?>
<!-- Created with Inkscape (http://www.inkscape.org/) -->

<svg
   width="64.521294mm"
   height="47.204311mm"
   viewBox="0 0 64.521294 47.204311"
   version="1.1"
   id="svg5"
   xmlns="http://www.w3.org/2000/svg"
   xmlns:svg="http://www.w3.org/2000/svg">
  <defs
     id="defs2">
    <style
       id="style9">.cls-1{fill:#fff;}</style>
  </defs>
  <g
     id="layer1"
     transform="translate(-85.148977,-145.17021)">
    <g
       id="g472">
      <path
         d="m 149.67027,153.875 v 29.89792 c -0.0344,0.12964 -0.0794,0.26458 -0.10054,0.39158 -0.65617,3.94494 -2.91042,6.5114 -6.69132,7.76552 -0.58737,0.19579 -1.2065,0.29898 -1.80975,0.4445 H 93.750581 a 2.1881041,2.1881041 0 0 0 -0.333375,-0.10054 c -3.997854,-0.56621 -6.532562,-2.87867 -7.844896,-6.62252 a 15.962312,15.962312 0 0 1 -0.423333,-1.87854 V 153.875 a 2.5796875,2.5796875 0 0 0 0.108479,-0.38894 9.4350415,9.4350415 0 0 1 6.715125,-7.874 24.468666,24.468666 0 0 1 2.495021,-0.44185 h 45.577128 c 0.4392,0.0423 0.87841,0.0767 1.32291,0.127 3.86292,0.45773 7.24959,3.54012 8.05921,7.33425 0.082,0.41275 0.1614,0.82815 0.24342,1.24354 z m -60.946772,9.38742 v 0.66675 q 0,9.64671 0,19.30135 a 5.4689374,5.4689374 0 0 0 1.058333,3.24644 c 1.322917,1.82562 3.175,2.51354 5.36575,2.5109 q 16.716379,0 33.430099,0 c 3.77296,0 7.54328,-0.0423 11.31623,0 4.064,0.0397 6.25211,-3.29936 6.22036,-6.2918 -0.0714,-6.27856 -0.0212,-12.55977 -0.0212,-18.84098 v -0.59266 z m 57.263772,-9.87425 c -0.41275,-2.42094 -2.43417,-4.37621 -4.7625,-4.53231 -1.82034,-0.12171 -3.64861,-0.10584 -5.47423,-0.10584 q -12.34017,0 -24.67769,0 H 94.539039 a 5.7890833,5.7890833 0 0 0 -4.016375,1.52136 c -0.910166,0.82285 -1.410229,1.8706 -1.703916,3.10091 z"
         id="path15"
         style="stroke-width:0.264583" />
      <path
         d="m 135.41981,178.75377 c 0.0291,3.70417 -3.02683,6.2574 -6.3156,6.29179 a 6.3658749,6.3658749 0 0 1 -6.51405,-6.35 c 0,-3.49779 2.96598,-6.49552 6.42673,-6.48758 a 6.4611249,6.4611249 0 0 1 6.40292,6.54579 z"
         id="path25"
         style="stroke-width:0.264583" />
      <path
         d="m 134.75306,185.00058 c 3.70417,-3.27289 3.89202,-9.0117 -0.0212,-12.6312 5.12498,-0.83873 8.80798,2.57704 8.46667,6.87916 -0.26458,3.21204 -3.09033,5.74146 -6.3156,5.74411 z"
         id="path27"
         style="stroke-width:0.264583" />
      <path
         d="m 111.93804,180.31481 c -1.21179,0 -2.42358,0 -3.63273,0 a 1.444625,1.444625 0 0 1 -1.52665,-1.54252 c 0.0291,-0.85725 0.62971,-1.37054 1.56369,-1.36789 2.42359,0 4.84717,0 7.26811,0.0159 1.10595,0 1.66158,0.66411 1.49489,1.74625 -0.11377,0.75142 -0.55033,1.13506 -1.37848,1.14829 -1.26206,0.0132 -2.53206,0 -3.78883,0 z"
         id="path29"
         style="stroke-width:0.264583" />
      <path
         d="m 98.11356,177.4044 c 1.161521,0 2.3204,0 3.47927,0 0.90223,0 1.51342,0.54768 1.53723,1.35466 a 1.42875,1.42875 0 0 1 -1.46579,1.5584 c -2.402418,0.0212 -4.807481,0 -7.209897,0 -0.79375,0 -1.322917,-0.635 -1.322917,-1.45785 0,-0.82286 0.542396,-1.41817 1.344083,-1.4314 1.209146,-0.0212 2.420938,0 3.630084,0 z"
         id="path31"
         style="stroke-width:0.264583" />
      <path
         d="m 100.23023,174.63421 c 0,-0.9869 0,-1.905 0,-2.82046 0,-0.11377 0.10583,-0.23019 0.17462,-0.33867 a 2.2674791,2.2674791 0 0 1 2.51884,-1.10595 5.9107916,5.9107916 0 0 0 1.016,0 c 0,1.04245 0.0873,2.0611 -0.0291,3.05593 -0.0847,0.72232 -0.70908,1.12448 -1.42346,1.18798 -0.71437,0.0635 -1.46314,0.0212 -2.25689,0.0212 z"
         id="path33"
         style="stroke-width:0.264583" />
      <path
         d="m 96.658352,174.63686 c -0.762,0 -1.444625,0.0238 -2.116667,0 a 1.6562916,1.6562916 0 0 1 -1.5875,-1.57428 c -0.05292,-0.86518 0,-1.73566 0,-2.67758 0.849313,0 1.693334,0 2.537354,0 0.08996,0 0.187855,0.11906 0.264584,0.20373 0.07673,0.0847 0.153458,0.28575 0.264583,0.36248 0.658813,0.42598 0.693208,1.05833 0.658813,1.74625 -0.04498,0.62706 -0.02117,1.25677 -0.02117,1.9394 z"
         id="path35"
         style="stroke-width:0.264583" />
      <path
         d="m 103.97673,169.21819 c -0.90488,0 -1.82298,0.11112 -2.69082,-0.0503 a 1.6007291,1.6007291 0 0 1 -1.01864,-1.05834 c -0.15611,-0.90487 -0.0476,-1.85208 -0.0476,-2.84427 0.83873,0 1.64571,-0.0873 2.42359,0.0265 a 1.5345833,1.5345833 0 0 1 1.30704,1.34144 c 0.10848,0.82815 0.0265,1.68275 0.0265,2.58498 z"
         id="path37"
         style="stroke-width:0.264583" />
      <path
         d="m 96.668935,165.29971 c 0,0.93927 0.02381,1.8706 0,2.80194 -0.01588,0.38893 -0.923396,1.11389 -1.322916,1.11654 -0.79375,0 -1.5875,0 -2.38125,0 0,-0.90223 -0.06615,-1.75419 0.01852,-2.59027 0.07937,-0.78052 0.873125,-1.3679 1.661584,-1.37319 0.611187,0 1.225021,0 1.836208,0 a 1.4684375,1.4684375 0 0 1 0.187854,0.045 z"
         id="path39"
         style="stroke-width:0.264583" />
      <path
         d="m 95.054977,185.41069 c -0.238125,0 -0.47625,0 -0.714375,0 a 1.2091458,1.2091458 0 0 1 -1.185333,-1.25942 1.190625,1.190625 0 0 1 1.172104,-1.22237 c 0.542396,-0.0212 1.087437,-0.0185 1.629833,0 0.632354,0.0238 1.039813,0.50271 1.058333,1.19591 a 1.1985625,1.1985625 0 0 1 -1.042458,1.28852 c -0.304271,0.0212 -0.611187,0 -0.915458,0 z"
         id="path41"
         style="stroke-width:0.264583" />
      <path
         d="m 100.979,185.42127 c -0.20638,0 -0.41011,0 -0.61384,0 a 1.2250208,1.2250208 0 0 1 -1.240892,-1.2065 1.2091458,1.2091458 0 0 1 1.214442,-1.28852 c 0.49212,-0.0238 0.98689,-0.0265 1.47902,0 0.73818,0.0344 1.15093,0.51329 1.14035,1.27529 a 1.1800417,1.1800417 0 0 1 -1.16417,1.22238 c -0.26458,0.0132 -0.54504,0 -0.81491,0 z"
         id="path43"
         style="stroke-width:0.264583" />
      <path
         d="m 96.690102,169.98019 c 0.357187,-0.42863 0.672042,-0.82815 1.010708,-1.20915 0.238125,-0.26458 1.217083,-0.26458 1.4605,0 0.357188,0.38365 0.695854,0.79375 1.07685,1.22238 -0.412746,0.46037 -0.793746,0.91546 -1.209142,1.32291 -0.264583,0.26459 -1.058333,0.19315 -1.291166,-0.10054 -0.341313,-0.381 -0.682625,-0.78581 -1.04775,-1.2356 z"
         id="path45"
         style="stroke-width:0.264583" />
      <path
         d="m 99.09781,167.45077 h -1.322916 v -2.17223 h 1.322916 z"
         id="path47"
         style="stroke-width:0.264583" />
      <path
         d="m 99.09781,174.59717 h -1.322916 v -1.93146 h 1.322916 z"
         id="path49"
         style="stroke-width:0.264583" />
    </g>
  </g>
</svg>
