<?xml version="1.0" encoding="UTF-8" standalone="no"?>
<!-- Created with Inkscape (http://www.inkscape.org/) -->

<svg
   width="72.397049mm"
   height="64.492348mm"
   viewBox="0 0 72.397049 64.492348"
   version="1.1"
   id="svg5"
   xmlns="http://www.w3.org/2000/svg"
   xmlns:svg="http://www.w3.org/2000/svg">
  <defs
     id="defs2">
    <style
       id="style9">.cls-1{fill:#fff;}</style>
    <style
       id="style777">.cls-1{fill:#fff;}</style>
    <style
       id="style1255">.cls-1{fill:#fb4401;}</style>
  </defs>
  <g
     id="layer1"
     transform="translate(-134.57698,-177.23497)">
    <g
       id="Réteg_1"
       data-name="Réteg 1"
       transform="matrix(0.26458333,0,0,0.26458333,97.585809,155.40995)">
      <path
         class="cls-1"
         d="m 37.3,18.11 h 1 c 5.71,0 11.42,0 17.13,0 a 1.53,1.53 0 0 1 1.4,0.71 Q 71.72,38.57 86.66,58.3 l 43,56.79 37.34,49.43 2.82,3.71 0.56,0.8 a 4.09,4.09 0 0 1 -0.66,0.1 c -5.41,0 -10.83,0 -16.24,0 a 1.36,1.36 0 0 1 -1.18,-0.63 q -8,-10.56 -16.12,-21.09 L 93.51,91.65 46.44,30.11 37.94,19 C 37.76,18.77 37.6,18.52 37.3,18.11 Z"
         id="path785"
         style="fill:none" />
      <path
         class="cls-1"
         d="m 413.43577,209.65261 c -0.44,1.66 -0.82,3.34 -1.31,5 -2.24,7.57 -6.66,13.61 -13.56,17.41 -2.66,1.46 -3,3 -2.73,5.62 1.7,14.23 -1.7,27.3 -9.41,39.25 -8.37,13 -20.13,22.18 -33.46,29.51 a 161.58,161.58 0 0 1 -53.06,17.72 c -11.73,1.88 -23.52,2.73 -35.33,1.5 -29.11,-3 -56.41,-11.28 -80,-29.38 -13.06,-10.05 -22.75,-22.59 -26.48,-39.07 a 57.210001,57.210001 0 0 1 -0.87,-20.7 3.35,3.35 0 0 0 -1.95,-4 c -9.93,-5.59 -15.29,-14.38 -15.46,-25.65 a 29.65,29.65 0 0 1 24.57,-29.84 29.08,29.08 0 0 1 24.43,6.37 c 1.36,1.09 2.16,1.11 3.61,0.12 a 131.94,131.94 0 0 1 51.74,-20.87 c 9,-1.61 18.09,-2.5 27.6,-3.78 1.17,-5.49 2.46,-11.5 3.74,-17.52 q 5.64,-26.58 11.27,-53.150003 a 5.1100001,5.1100001 0 0 1 6.31,-4.24 c 10,2 19.9,4.12 29.84,6.22 q 9.09,1.92 18.14,3.93 c 1.48,0.33 2.16,-0.27 2.93,-1.51 a 20.94,20.94 0 0 1 24.2,-9.14 21.46,21.46 0 0 1 15.24,20.800003 c -0.14,10.46 -8.68,20 -18.78,20.91 -11.26,1 -21.12,-5.9 -23.42,-16.5 -0.26,-1.2 -0.47,-2.41 -0.74,-3.76 l -35.19,-7.520003 q -3.37,-0.72 -6.72,-1.49 c -1.58,-0.35 -2.44,-0.29 -2.88,1.82 -4.1,19.730003 -8.37,39.410003 -12.58,59.110003 a 24.85,24.85 0 0 0 -0.29,2.62 c 28.76,1.46 55.65,8.6 78.8,24.73 5.11,-2.38 9.6,-5.25 14.5,-6.62 17.31,-4.82 34.82,7.47 36.81,25.4 0,0.29 0.32,0.55 0.49,0.82 z m -184.2,-3.2 c -12.13,0 -21,9.08 -20.94,21.41 0.06,12.33 8.92,21.35 21,21.36 a 21.39,21.39 0 1 0 -0.1,-42.77 z m 73,21.5 c 0,12.26 8.69,21.16 21.24,21.05 12,-0.11 21.25,-7.6 21.47,-21.15 0.19,-11.61 -9.7,-21.39 -21.3,-21.4 a 21.33,21.33 0 0 0 -21.44,21.5 z m -26.17,72.13 c 9.95,-0.27 19.56,-1.21 28.92,-3.85 8.09,-2.29 15.67,-5.65 21.87,-11.54 2.64,-2.51 2.8,-5.61 0.55,-8 -2.25,-2.39 -5.19,-2.34 -8,-0.1 a 44.720001,44.720001 0 0 1 -7.47,5 c -6.9,3.47 -14.44,4.78 -22,5.54 a 121.91,121.91 0 0 1 -34,-1.06 c -8,-1.44 -15.71,-3.67 -22,-9.28 -2.88,-2.58 -5.88,-2.59 -8.2,-0.08 -2.32,2.51 -2.18,5.76 0.83,8.14 a 63.540001,63.540001 0 0 0 10.55,7.11 c 12.26,6.18 25.7,7.55 38.92,8.12 z"
         id="path1261" />
    </g>
  </g>
</svg>
