<?xml version="1.0" encoding="UTF-8" standalone="no"?>
<!-- Created with Inkscape (http://www.inkscape.org/) -->

<svg
   width="55.073021mm"
   height="49.815384mm"
   viewBox="0 0 55.073021 49.815384"
   version="1.1"
   id="svg5"
   xmlns="http://www.w3.org/2000/svg"
   xmlns:svg="http://www.w3.org/2000/svg">
  <defs
     id="defs2">
    <style
       id="style9">.cls-1{fill:#fff;}</style>
    <style
       id="style777">.cls-1{fill:#fff;}</style>
  </defs>
  <g
     id="layer1"
     transform="translate(-97.585809,-155.40816)">
    <g
       id="Réteg_1"
       data-name="Réteg 1"
       transform="matrix(0.26458333,0,0,0.26458333,97.585809,155.40995)">
      <path
         d="m 93.63,122.42 -4.3,4.91 L 44.15,179 c -2.54,2.9 -5.09,5.8 -7.61,8.71 a 1.47,1.47 0 0 1 -1.23,0.56 q -15.17,0 -30.32,0 H 4.4 c 0,-0.08 -0.06,-0.11 -0.06,-0.14 a 0.11,0.11 0 0 1 0,-0.08 l 0.1,-0.15 0.29,-0.34 73.76,-84.36 a 0.78,0.78 0 0 0 0.1,-0.15 L 78.66,102.87 0,0 h 65 a 1.48,1.48 0 0 1 1.34,0.65 q 16.2,21.43 32.42,42.85 l 12,15.87 c 0.18,0.24 0.37,0.45 0.6,0.73 0.26,-0.28 0.49,-0.5 0.7,-0.74 L 163.15,1 A 2.64,2.64 0 0 0 163.5,0.6 1.28,1.28 0 0 1 164.72,0 c 2.87,0 5.74,0 8.61,0 h 22.55 c -3,3.45 -5.88,6.73 -8.75,10 -2.87,3.27 -5.83,6.66 -8.74,10 -2.91,3.34 -5.79,6.62 -8.69,9.92 l -8.74,10 -8.68,9.93 -8.68,9.92 -8.74,10 -8.71,10 82,108.44 h -1.17 -53.17 c -3,0 -6,0 -9.06,0 a 1.41,1.41 0 0 1 -1.27,-0.61 Q 118.94,155.45 94.35,123.34 Z M 37.3,18.11 c 0.3,0.41 0.46,0.66 0.64,0.89 l 8.5,11.11 47.07,61.54 42.66,55.78 q 8.07,10.53 16.12,21.09 a 1.36,1.36 0 0 0 1.18,0.63 c 5.41,0 10.83,0 16.24,0 a 4.09,4.09 0 0 0 0.66,-0.1 l -0.56,-0.8 -2.81,-3.73 -37.38,-49.43 -43,-56.79 Q 71.73,38.56 56.81,18.81 a 1.53,1.53 0 0 0 -1.4,-0.71 c -5.71,0 -11.42,0 -17.13,0 z"
         id="path783"
         style="fill:#1a1a1a" />
      <path
         class="cls-1"
         d="m 37.3,18.11 h 1 c 5.71,0 11.42,0 17.13,0 a 1.53,1.53 0 0 1 1.4,0.71 Q 71.72,38.57 86.66,58.3 l 43,56.79 37.34,49.43 2.82,3.71 0.56,0.8 a 4.09,4.09 0 0 1 -0.66,0.1 c -5.41,0 -10.83,0 -16.24,0 a 1.36,1.36 0 0 1 -1.18,-0.63 q -8,-10.56 -16.12,-21.09 L 93.51,91.65 46.44,30.11 37.94,19 C 37.76,18.77 37.6,18.52 37.3,18.11 Z"
         id="path785"
         style="fill:none" />
    </g>
  </g>
</svg>
