<?xml version="1.0" encoding="UTF-8" standalone="no"?>
<!-- Created with Inkscape (http://www.inkscape.org/) -->

<svg
   width="70.469894mm"
   height="49.452484mm"
   viewBox="0 0 70.469895 49.452484"
   version="1.1"
   id="svg5"
   xmlns="http://www.w3.org/2000/svg"
   xmlns:svg="http://www.w3.org/2000/svg">
  <defs
     id="defs2">
    <style
       id="style9">.cls-1{fill:#fff;}</style>
    <style
       id="style777">.cls-1{fill:#fff;}</style>
    <style
       id="style1255">.cls-1{fill:#fb4401;}</style>
    <style
       id="style9-1">.cls-1{fill:#fff;}</style>
    <style
       id="style777-1">.cls-1{fill:#fff;}</style>
    <style
       id="style1869">.cls-1{fill:#fe0000;}</style>
  </defs>
  <g
     id="layer1"
     transform="translate(-89.592736,-172.48545)">
    <path
       class="cls-1"
       d="m 125.91404,172.48545 c 5.97959,0.19844 11.95917,0.34925 17.93611,0.61648 a 58.782479,58.782479 0 0 1 7.46654,0.74612 c 4.13544,0.72232 6.66485,3.36815 7.49829,7.46125 a 61.994521,61.994521 0 0 1 1.22238,11.41148 q 0.0873,5.63034 -0.127,11.26861 a 58.658125,58.658125 0 0 1 -1.22767,9.94833 c -0.73025,3.43958 -3.61421,6.06954 -7.31573,6.7019 -3.78619,0.64558 -7.61471,0.84137 -11.44323,1.00012 -8.37406,0.34925 -16.75077,0.40217 -25.13542,0.10319 -4.96622,-0.17992 -9.92452,-0.55033 -14.885447,-0.89694 -2.11667,-0.15081 -4.15925,-0.6641 -5.87375,-2.07433 -1.97115,-1.62454 -2.91042,-3.76238 -3.3364,-6.22036 -0.889,-5.25462 -1.12448,-10.55158 -1.09802,-15.86706 a 96.04375,96.04375 0 0 1 1.11125,-14.859 c 0.55033,-3.38667 2.1934,-5.96635 5.41602,-7.27604 1.29117,-0.52388 2.73315,-0.74083 4.138077,-0.89958 8.51959,-1.01336 17.0868,-1.03188 25.654,-1.16417 z m -7.87135,35.32717 18.415,-10.56746 -18.415,-10.56481 z"
       id="path1875"
       style="stroke-width:0.264583" />
  </g>
</svg>
